<svg xmlns="http://www.w3.org/2000/svg" xmlns:xlink="http://www.w3.org/1999/xlink" width="24" height="24" viewBox="0 0 24 24">
  <defs>
    <clipPath id="clip-path">
      <path id="Combined_Shape" data-name="Combined Shape" d="M3.222,18.778A11,11,0,1,1,18.778,3.222,11,11,0,1,1,3.222,18.778ZM2,11a9,9,0,1,0,9-9A9.01,9.01,0,0,0,2,11Zm8.294,3.707A1,1,0,1,1,11,15,1,1,0,0,1,10.293,14.707ZM10,11V7a1,1,0,1,1,2,0v4a1,1,0,0,1-2,0Z" transform="translate(1 1)" fill="#242825"/>
    </clipPath>
    <filter id="_Icon_Color" x="-60" y="-42" width="144" height="144" filterUnits="userSpaceOnUse">
      <feOffset dy="18" input="SourceAlpha"/>
      <feGaussianBlur stdDeviation="20" result="blur"/>
      <feFlood flood-color="#6b67d2" flood-opacity="0.349"/>
      <feComposite operator="in" in2="blur"/>
      <feComposite in="SourceGraphic"/>
    </filter>
  </defs>
  <g id="Grupo_20806" data-name="Grupo 20806" transform="translate(-6945 5004)">
    <g id="Icon_alert-circle" data-name="Icon / alert-circle" transform="translate(6946 -5003)">
      <g id="Grupo_123" data-name="Grupo 123" transform="translate(-1 -1)">
        <path id="Combined_Shape-2" data-name="Combined Shape" d="M3.222,18.778A11,11,0,1,1,18.778,3.222,11,11,0,1,1,3.222,18.778ZM2,11a9,9,0,1,0,9-9A9.01,9.01,0,0,0,2,11Zm8.294,3.707A1,1,0,1,1,11,15,1,1,0,0,1,10.293,14.707ZM10,11V7a1,1,0,1,1,2,0v4a1,1,0,0,1-2,0Z" transform="translate(1 1)" fill="#242825"/>
        <g id="Enmascarar_grupo_123" data-name="Enmascarar grupo 123" clip-path="url(#clip-path)">
          <g transform="matrix(1, 0, 0, 1, 0, 0)" filter="url(#_Icon_Color)">
            <rect id="_Icon_Color-2" data-name="↳ Icon Color" width="24" height="24" transform="translate(0 0)" fill="#242825"/>
          </g>
        </g>
      </g>
    </g>
    <rect id="Rectángulo_3622" data-name="Rectángulo 3622" width="24" height="24" transform="translate(6945 -5004)" fill="none"/>
  </g>
</svg>
