<?xml version="1.0" encoding="UTF-8"?>
<svg xmlns="http://www.w3.org/2000/svg" xmlns:xlink="http://www.w3.org/1999/xlink" width="24px" height="24px" viewBox="0 0 24 24" version="1.1">
<g id="surface1">
<path style=" stroke:none;fill-rule:nonzero;fill:rgb(14.117647%,15.686275%,14.509804%);fill-opacity:1;" d="M 4.960938 19.039062 C 2.425781 16.527344 1.429688 12.851562 2.347656 9.40625 C 3.261719 5.957031 5.957031 3.261719 9.40625 2.347656 C 12.851562 1.429688 16.527344 2.425781 19.039062 4.960938 C 21.574219 7.472656 22.570312 11.148438 21.652344 14.59375 C 20.738281 18.042969 18.042969 20.738281 14.59375 21.652344 C 11.148438 22.570312 7.472656 21.574219 4.960938 19.039062 Z M 3.855469 12 C 3.855469 16.496094 7.503906 20.144531 12 20.144531 C 16.496094 20.144531 20.144531 16.496094 20.144531 12 C 20.144531 7.503906 16.496094 3.855469 12 3.855469 C 7.503906 3.863281 3.863281 7.503906 3.855469 12 Z M 11.359375 15.355469 C 11.054688 15.050781 11.007812 14.570312 11.25 14.210938 C 11.488281 13.851562 11.949219 13.714844 12.347656 13.878906 C 12.746094 14.042969 12.972656 14.46875 12.886719 14.890625 C 12.804688 15.316406 12.433594 15.621094 12 15.621094 C 11.761719 15.621094 11.53125 15.523438 11.359375 15.355469 Z M 11.09375 12 L 11.09375 8.378906 C 11.09375 7.882812 11.5 7.476562 12 7.476562 C 12.5 7.476562 12.90625 7.882812 12.90625 8.378906 L 12.90625 12 C 12.90625 12.5 12.5 12.90625 12 12.90625 C 11.5 12.90625 11.09375 12.5 11.09375 12 Z M 11.09375 12 "/>
</g>
</svg>
