<?xml version="1.0" encoding="UTF-8"?>
<!-- Created with Inkscape (http://www.inkscape.org/) -->
<svg width="120" height="120" version="1.1" viewBox="0 0 120 120" xmlns="http://www.w3.org/2000/svg">
 <path d="m15.001 90.625a4.7207 4.7207 0 0 1-5.0007-4.375 4.7207 4.7207 0 0 1 5.0007-4.375h89.999a4.7207 4.7207 0 0 1 5.0007 4.375 4.7207 4.7207 0 0 1-5.0007 4.375zm0-26.25a4.7207 4.7207 0 0 1-5.0007-4.375 4.7163 4.7163 0 0 1 5.0007-4.375h89.999a4.7163 4.7163 0 0 1 5.0007 4.375 4.7207 4.7207 0 0 1-5.0007 4.375zm0-26.25a4.7163 4.7163 0 0 1-5.0007-4.375 4.7163 4.7163 0 0 1 5.0007-4.375h89.999a4.7163 4.7163 0 0 1 5.0007 4.375 4.7163 4.7163 0 0 1-5.0007 4.375z" fill="#242825" stroke-width="4.375" data-name="Combined Shape"/>
</svg>
