<svg id="MDI_book-open-variant" data-name="MDI / book-open-variant" xmlns="http://www.w3.org/2000/svg" width="24" height="24" viewBox="0 0 24 24">
  <g id="Boundary" stroke="rgba(0,0,0,0)" stroke-width="1" opacity="0">
    <rect width="24" height="24" stroke="none"/>
    <rect x="0.5" y="0.5" width="23" height="23" fill="none"/>
  </g>
  <path id="Path_book-open-variant" data-name="Path / book-open-variant" d="M17.108,14.1a13.554,13.554,0,0,1,2.441.234V15.8a10.182,10.182,0,0,0-2.441-.234,8.547,8.547,0,0,0-4.393.966v-1.65a10.7,10.7,0,0,1,4.393-.781m-4.393-1.826a11.5,11.5,0,0,1,4.393-.771,13.511,13.511,0,0,1,2.441.225v1.464a10.182,10.182,0,0,0-2.441-.234,8.646,8.646,0,0,0-4.393.966m4.393-3.563a8.351,8.351,0,0,0-4.393.976V9.713a10.566,10.566,0,0,1,4.393-.82,14.455,14.455,0,0,1,2.441.225v1.513a9.932,9.932,0,0,0-2.441-.273m3.417,7.81V6.941a11.282,11.282,0,0,0-3.417-.488,10.005,10.005,0,0,0-5.369,1.464V19.144a10.005,10.005,0,0,1,5.369-1.464,11.9,11.9,0,0,1,3.417.488M17.108,4.5a8.69,8.69,0,0,1,5.369,1.464V20.179a.479.479,0,0,1-.156.342.6.6,0,0,1-.332.166.538.538,0,0,1-.244-.049,9.7,9.7,0,0,0-4.637-1.006A10.005,10.005,0,0,0,11.739,21.1a8.788,8.788,0,0,0-5.369-1.464,10.733,10.733,0,0,0-4.637,1.045,1.009,1.009,0,0,0-.117.029.5.5,0,0,1-.127.02.573.573,0,0,1-.332-.117A.463.463,0,0,1,1,20.266V5.964A8.808,8.808,0,0,1,6.369,4.5a8.788,8.788,0,0,1,5.369,1.464A8.788,8.788,0,0,1,17.108,4.5Z" transform="translate(0.261 -0.798)" fill="#222423"/>
</svg>
