<?xml version="1.0" encoding="UTF-8"?>
<!-- Created with Inkscape (http://www.inkscape.org/) -->
<svg width="120" height="120" version="1.1" viewBox="0 0 120 120" xmlns="http://www.w3.org/2000/svg">
 <path id="Path_book-open-variant" d="m85.001 66.089a63.109 63.109 0 0 1 11.366 1.0895v6.8259a47.409 47.409 0 0 0-11.366-1.0895 39.796 39.796 0 0 0-20.454 4.4978v-7.6826a49.821 49.821 0 0 1 20.454-3.6364m-20.454-8.5021a53.546 53.546 0 0 1 20.454-3.5899 62.909 62.909 0 0 1 11.366 1.0476v6.8166a47.409 47.409 0 0 0-11.366-1.0895 40.257 40.257 0 0 0-20.454 4.4978m20.454-16.59a38.883 38.883 0 0 0-20.454 4.5444v-7.5662a49.197 49.197 0 0 1 20.454-3.818 67.305 67.305 0 0 1 11.366 1.0476v7.0447a46.245 46.245 0 0 0-11.366-1.2711m15.91 36.364v-52.275a52.531 52.531 0 0 0-15.91-2.2722 46.585 46.585 0 0 0-24.999 6.8166v52.275a46.585 46.585 0 0 1 24.999-6.8166 55.408 55.408 0 0 1 15.91 2.2722m-15.91-63.64a40.462 40.462 0 0 1 24.999 6.8166v66.187a2.2303 2.2303 0 0 1-0.72636 1.5924 2.7937 2.7937 0 0 1-1.5458 0.77292 2.505 2.505 0 0 1-1.1361-0.22815 45.165 45.165 0 0 0-21.591-4.6841 46.585 46.585 0 0 0-24.999 6.8352 40.918 40.918 0 0 0-24.999-6.8166 49.974 49.974 0 0 0-21.591 4.8657 4.698 4.698 0 0 0-0.54477 0.13503 2.3281 2.3281 0 0 1-0.59133 0.0931 2.668 2.668 0 0 1-1.5458-0.54477 2.1558 2.1558 0 0 1-0.73101-1.6157v-66.592a41.011 41.011 0 0 1 24.999-6.8166 40.918 40.918 0 0 1 24.999 6.8166 40.918 40.918 0 0 1 25.003-6.8166z" fill="#222423" stroke-width="4.6561" data-name="Path / book-open-variant"/>
</svg>
