<?xml version="1.0" encoding="UTF-8"?>
<!-- Created with Inkscape (http://www.inkscape.org/) -->
<svg width="120" height="120" version="1.1" viewBox="0 0 120 120" xmlns="http://www.w3.org/2000/svg">
 <defs>
  <clipPath id="clip-path-45">
   <path transform="translate(0 2)" d="M21,20H3a3,3,0,0,1-3-3V6A3,3,0,0,1,3,3H6.465L8.168.445A1,1,0,0,1,9,0h6a1,1,0,0,1,.832.446L17.536,3H21a3,3,0,0,1,3,3V17A3,3,0,0,1,21,20ZM3,5A1,1,0,0,0,2,6V17a1,1,0,0,0,1,1H21a1,1,0,0,0,1-1V6a1,1,0,0,0-1-1H17a1,1,0,0,1-.833-.446L14.465,2H9.536l-1.7,2.555A1,1,0,0,1,7,5Zm9,11a5,5,0,1,1,5-5A5.006,5.006,0,0,1,12,16Zm0-8a3,3,0,1,0,3,3A3,3,0,0,0,12,8Z" fill="#242825" data-name="Combined Shape"/>
  </clipPath>
  <filter id="_Icon_Color-6" x="-57.933" y="-40" width="144" height="144" filterUnits="userSpaceOnUse">
   <feOffset dy="18" input="SourceAlpha"/>
   <feGaussianBlur result="blur" stdDeviation="20"/>
   <feFlood flood-color="#6b67d2" flood-opacity=".349"/>
   <feComposite in2="blur" operator="in" result="result1"/>
   <feComposite in="SourceGraphic" in2="result1"/>
  </filter>
 </defs>
 <g transform="matrix(4.1667 0 0 4.1667 10 10)" clip-path="url(#clip-path-45)" data-name="Enmascarar grupo 54">
  <g transform="translate(-2.07,-2)" filter="url(#_Icon_Color-6)">
   <rect transform="translate(2.07,2)" width="24" height="24" fill="#242825" data-name="↳ Icon Color"/>
  </g>
 </g>
</svg>
