<svg xmlns="http://www.w3.org/2000/svg" xmlns:xlink="http://www.w3.org/1999/xlink" width="28" height="28" viewBox="0 0 28 28">
  <defs>
    <clipPath id="clip-path">
      <path id="Combined_Shape" data-name="Combined Shape" d="M21,20H3a3,3,0,0,1-3-3V6A3,3,0,0,1,3,3H6.465L8.168.445A1,1,0,0,1,9,0h6a1,1,0,0,1,.832.446L17.536,3H21a3,3,0,0,1,3,3V17A3,3,0,0,1,21,20ZM3,5A1,1,0,0,0,2,6V17a1,1,0,0,0,1,1H21a1,1,0,0,0,1-1V6a1,1,0,0,0-1-1H17a1,1,0,0,1-.833-.446L14.465,2H9.536l-1.7,2.555A1,1,0,0,1,7,5Zm9,11a5,5,0,1,1,5-5A5.006,5.006,0,0,1,12,16Zm0-8a3,3,0,1,0,3,3A3,3,0,0,0,12,8Z" transform="translate(0 2)" fill="#242825"/>
    </clipPath>
    <filter id="_Icon_Color" x="-57.933" y="-40" width="144" height="144" filterUnits="userSpaceOnUse">
      <feOffset dy="18" input="SourceAlpha"/>
      <feGaussianBlur stdDeviation="20" result="blur"/>
      <feFlood flood-color="#6b67d2" flood-opacity="0.349"/>
      <feComposite operator="in" in2="blur"/>
      <feComposite in="SourceGraphic"/>
    </filter>
  </defs>
  <g id="Grupo_20718" data-name="Grupo 20718" transform="translate(-3599 2851)">
    <rect id="Rectángulo_3597" data-name="Rectángulo 3597" width="28" height="28" transform="translate(3599 -2851)" fill="none"/>
    <g id="Icon_camera" data-name="Icon / camera" transform="translate(3601.067 -2847)">
      <g id="Grupo_54" data-name="Grupo 54" transform="translate(0 -2)">
        <path id="Combined_Shape-2" data-name="Combined Shape" d="M21,20H3a3,3,0,0,1-3-3V6A3,3,0,0,1,3,3H6.465L8.168.445A1,1,0,0,1,9,0h6a1,1,0,0,1,.832.446L17.536,3H21a3,3,0,0,1,3,3V17A3,3,0,0,1,21,20ZM3,5A1,1,0,0,0,2,6V17a1,1,0,0,0,1,1H21a1,1,0,0,0,1-1V6a1,1,0,0,0-1-1H17a1,1,0,0,1-.833-.446L14.465,2H9.536l-1.7,2.555A1,1,0,0,1,7,5Zm9,11a5,5,0,1,1,5-5A5.006,5.006,0,0,1,12,16Zm0-8a3,3,0,1,0,3,3A3,3,0,0,0,12,8Z" transform="translate(0 2)" fill="#242825"/>
        <g id="Enmascarar_grupo_54" data-name="Enmascarar grupo 54" clip-path="url(#clip-path)">
          <g transform="matrix(1, 0, 0, 1, -2.07, -2)" filter="url(#_Icon_Color)">
            <rect id="_Icon_Color-2" data-name="↳ Icon Color" width="24" height="24" transform="translate(2.07 2)" fill="#242825"/>
          </g>
        </g>
      </g>
    </g>
  </g>
</svg>
