<?xml version="1.0" encoding="UTF-8"?>
<!-- Created with Inkscape (http://www.inkscape.org/) -->
<svg width="120" height="120" version="1.1" viewBox="0 0 120 120" xmlns="http://www.w3.org/2000/svg">
 <path id="Path_card-account-details" d="m18.334 22.501h83.333a8.6425 8.6425 0 0 1 8.3337 8.3337v58.331a8.6425 8.6425 0 0 1-8.3337 8.3337h-83.333a8.6425 8.6425 0 0 1-8.3337-8.3337v-58.331a8.6425 8.6425 0 0 1 8.3337-8.3337m49.998 12.498v4.1646h33.335v-4.1646h-33.335m0 8.3337v4.1646h33.335v-4.1646h-33.335m0 8.3337v4.1646h29.166v-4.1646h-29.166m-24.997 16.275c-8.3337 0-25.001 4.5396-25.001 12.873v4.1646h49.998v-4.1646c0-8.3337-16.667-12.873-25.001-12.873m0-32.96a12.498 12.498 0 1 0 12.498 12.498 12.498 12.498 0 0 0-12.494-12.481z" fill="#222423" stroke-width="4.4117" data-name="Path / card-account-details"/>
</svg>
