<?xml version="1.0" encoding="UTF-8"?>
<!-- Created with Inkscape (http://www.inkscape.org/) -->
<svg width="120" height="120" version="1.1" viewBox="0 0 120 120" xmlns="http://www.w3.org/2000/svg">
 <path id="Icon_awesome-check-circle" d="m110 60a50 50 0 1 1-50-50 50 50 0 0 1 50 50zm-55.787 26.481 37.094-37.094a3.225 3.225 0 0 0 0-4.5625l-4.5625-4.5625a3.225 3.225 0 0 0-4.5625 0l-30.25 30.244-14.125-14.125a3.225 3.225 0 0 0-4.5625 0l-4.5625 4.5625a3.225 3.225 0 0 0 0 4.5625l20.969 20.975a3.225 3.225 0 0 0 4.5625 0z" fill="#1b8f26" stroke-width="6.25" data-name="Icon awesome-check-circle"/>
</svg>
