<?xml version="1.0" encoding="UTF-8" standalone="no"?>
<svg
   width="120"
   height="120"
   viewBox="0 0 120 120"
   version="1.1"
   id="svg33"
   sodipodi:docname="Grupo 20804.svg"
   inkscape:version="1.1.2 (b8e25be8, 2022-02-05)"
   xmlns:inkscape="http://www.inkscape.org/namespaces/inkscape"
   xmlns:sodipodi="http://sodipodi.sourceforge.net/DTD/sodipodi-0.dtd"
   xmlns="http://www.w3.org/2000/svg"
   xmlns:svg="http://www.w3.org/2000/svg">
  <sodipodi:namedview
     id="namedview35"
     pagecolor="#ffffff"
     bordercolor="#666666"
     borderopacity="1.0"
     inkscape:pageshadow="2"
     inkscape:pageopacity="0.0"
     inkscape:pagecheckerboard="0"
     showgrid="false"
     width="120px"
     inkscape:zoom="2.3850756"
     inkscape:cx="90.353529"
     inkscape:cy="43.39485"
     inkscape:window-width="1399"
     inkscape:window-height="847"
     inkscape:window-x="0"
     inkscape:window-y="25"
     inkscape:window-maximized="0"
     inkscape:current-layer="svg33" />
  <defs
     id="defs22">
    <clipPath
       id="clip-path">
      <path
         id="Combined_Shape"
         data-name="Combined Shape"
         d="M 2.929,17.071 A 10,10 0 1 1 17.071,2.929 10,10 0 1 1 2.929,17.071 Z M 1.818,10 A 8.182,8.182 0 1 0 10,1.818 8.191,8.191 0 0 0 1.818,10 Z M 12.085,13.37 9.358,10.643 A 0.907,0.907 0 0 1 9.091,10 V 4.546 a 0.909,0.909 0 1 1 1.818,0 v 5.078 l 2.461,2.461 a 0.909,0.909 0 1 1 -1.285,1.285 z"
         fill="#242825" />
    </clipPath>
    <filter
       id="_Icon_Color"
       x="-58.909"
       y="-40.909"
       width="141.819"
       height="141.819"
       filterUnits="userSpaceOnUse">
      <feOffset
         dy="18"
         input="SourceAlpha"
         id="feOffset11" />
      <feGaussianBlur
         stdDeviation="20"
         result="blur"
         id="feGaussianBlur13" />
      <feFlood
         flood-color="#6b67d2"
         flood-opacity="0.349"
         id="feFlood15" />
      <feComposite
         operator="in"
         in2="blur"
         id="feComposite17"
         result="result1" />
      <feComposite
         in="SourceGraphic"
         in2="result1"
         id="feComposite19" />
    </filter>
    <clipPath
       id="clip-path-9">
      <path
         id="Combined_Shape-1"
         data-name="Combined Shape"
         d="M 2.929,17.071 A 10,10 0 1 1 17.071,2.929 10,10 0 1 1 2.929,17.071 Z M 1.818,10 A 8.182,8.182 0 1 0 10,1.818 8.191,8.191 0 0 0 1.818,10 Z M 12.085,13.37 9.358,10.643 A 0.907,0.907 0 0 1 9.091,10 V 4.546 a 0.909,0.909 0 1 1 1.818,0 v 5.078 l 2.461,2.461 a 0.909,0.909 0 1 1 -1.285,1.285 z"
         fill="#242825" />
    </clipPath>
    <filter
       id="_Icon_Color-3"
       x="-58.909"
       y="-40.909"
       width="141.819"
       height="141.819"
       filterUnits="userSpaceOnUse">
      <feOffset
         dy="18"
         input="SourceAlpha"
         id="feOffset11-8" />
      <feGaussianBlur
         stdDeviation="20"
         result="blur"
         id="feGaussianBlur13-8" />
      <feFlood
         flood-color="#6b67d2"
         flood-opacity="0.349"
         id="feFlood15-9" />
      <feComposite
         operator="in"
         in2="blur"
         id="feComposite17-4"
         result="result1" />
      <feComposite
         in="SourceGraphic"
         in2="result1"
         id="feComposite19-3" />
    </filter>
    <mask
       maskUnits="userSpaceOnUse"
       id="mask758">
      <rect
         style="fill:#cccccc;stroke-width:0.20262"
         id="rect760"
         width="20.262047"
         height="20.262047"
         x="5047.8691"
         y="-4602.1309" />
    </mask>
  </defs>
  <g
     id="Grupo_20804"
     data-name="Grupo 20804"
     transform="matrix(4.9353355,0,0,4.9353355,-24902.927,22723.06)"
     mask="url(#mask758)">
    <g
       id="Icon_clock"
       data-name="Icon / clock"
       transform="translate(5048,-4602)">
      <g
         id="Grupo_7"
         data-name="Grupo 7">
        <path
           id="Combined_Shape-2"
           data-name="Combined Shape"
           d="M 2.929,17.071 A 10,10 0 1 1 17.071,2.929 10,10 0 1 1 2.929,17.071 Z M 1.818,10 A 8.182,8.182 0 1 0 10,1.818 8.191,8.191 0 0 0 1.818,10 Z M 12.085,13.37 9.358,10.643 A 0.907,0.907 0 0 1 9.091,10 V 4.546 a 0.909,0.909 0 1 1 1.818,0 v 5.078 l 2.461,2.461 a 0.909,0.909 0 1 1 -1.285,1.285 z"
           fill="#242825" />
        <g
           id="Enmascarar_grupo_7"
           data-name="Enmascarar grupo 7"
           clip-path="url(#clip-path-9)">
          <g
             transform="translate(-2,-2)"
             filter="url(#_Icon_Color)"
             id="g26"
             style="filter:url(#_Icon_Color-3)">
            <rect
               id="_Icon_Color-2"
               data-name="↳ Icon Color"
               width="21.819"
               height="21.819"
               transform="translate(1.09,1.09)"
               fill="#242825"
               x="0"
               y="0" />
          </g>
        </g>
      </g>
    </g>
    <rect
       id="Rectángulo_3621"
       data-name="Rectángulo 3621"
       width="24"
       height="24"
       transform="translate(5046,-4604)"
       fill="none"
       x="0"
       y="0" />
  </g>
</svg>
