<?xml version="1.0" encoding="UTF-8" standalone="no"?>
<svg
   width="120"
   height="120"
   viewBox="0 0 120 120"
   version="1.1"
   id="svg18"
   sodipodi:docname="Grupo 20544.svg"
   inkscape:version="1.1.2 (b8e25be8, 2022-02-05)"
   xmlns:inkscape="http://www.inkscape.org/namespaces/inkscape"
   xmlns:sodipodi="http://sodipodi.sourceforge.net/DTD/sodipodi-0.dtd"
   xmlns="http://www.w3.org/2000/svg"
   xmlns:svg="http://www.w3.org/2000/svg">
  <sodipodi:namedview
     id="namedview20"
     pagecolor="#ffffff"
     bordercolor="#666666"
     borderopacity="1.0"
     inkscape:pageshadow="2"
     inkscape:pageopacity="0.0"
     inkscape:pagecheckerboard="0"
     showgrid="false"
     width="120px"
     inkscape:zoom="4"
     inkscape:cx="26.625"
     inkscape:cy="77.375"
     inkscape:window-width="1399"
     inkscape:window-height="847"
     inkscape:window-x="0"
     inkscape:window-y="25"
     inkscape:window-maximized="0"
     inkscape:current-layer="svg18" />
  <defs
     id="defs11">
    <clipPath
       id="clip-path">
      <rect
         id="Rectángulo_1979"
         data-name="Rectángulo 1979"
         width="18.945999"
         height="18.945999"
         fill="#ffffff"
         x="0"
         y="0" />
    </clipPath>
    <clipPath
       id="clip-path-5">
      <rect
         id="Rectángulo_1979-5"
         data-name="Rectángulo 1979"
         width="18.945999"
         height="18.945999"
         fill="#ffffff"
         x="0"
         y="0" />
    </clipPath>
    <mask
       maskUnits="userSpaceOnUse"
       id="mask336">
      <rect
         style="fill:#cccccc;stroke-width:0.279678"
         id="rect338"
         width="19.047619"
         height="19.047619"
         x="17.476191"
         y="40.476189" />
    </mask>
  </defs>
  <g
     id="Grupo_20544"
     data-name="Grupo 20544"
     transform="matrix(5.25,0,0,5.25,-81.750001,-202.5)"
     mask="url(#mask336)">
    <rect
       id="Rectángulo_1980"
       data-name="Rectángulo 1980"
       width="24"
       height="24"
       transform="translate(15,38)"
       fill="none"
       x="0"
       y="0" />
    <g
       id="Grupo_20312"
       data-name="Grupo 20312"
       transform="translate(17.527,40.527)">
      <g
         id="Grupo_20311"
         data-name="Grupo 20311"
         clip-path="url(#clip-path-5)">
        <path
           id="Trazado_12352"
           data-name="Trazado 12352"
           d="m 18.45,14.858 a 1.691,1.691 0 0 1 0,2.393 l -1.2,1.2 a 1.694,1.694 0 0 1 -2.4,0 L 9.473,13.065 4.088,18.45 a 1.694,1.694 0 0 1 -2.4,0 l -1.2,-1.2 a 1.691,1.691 0 0 1 0,-2.393 L 5.881,9.473 0.5,4.088 a 1.694,1.694 0 0 1 0,-2.4 L 1.693,0.5 a 1.694,1.694 0 0 1 2.4,0 L 9.473,5.881 14.858,0.5 a 1.694,1.694 0 0 1 2.4,0 l 1.2,1.2 a 1.694,1.694 0 0 1 0,2.4 l -5.393,5.373 z"
           transform="translate(0,0.001)"
           fill="#ffffff" />
      </g>
    </g>
  </g>
</svg>
