<?xml version="1.0" encoding="UTF-8"?>
<!-- Created with Inkscape (http://www.inkscape.org/) -->
<svg width="120" height="120" version="1.1" viewBox="0 0 120 120" xmlns="http://www.w3.org/2000/svg">
 <defs>
  <clipPath id="clip-path-6">
   <path d="M10,14a10.338,10.338,0,0,1-7.379-3.357A16.179,16.179,0,0,1,.745,8.394,11.508,11.508,0,0,1,.087,7.348a.737.737,0,0,1,0-.7A11.5,11.5,0,0,1,.745,5.606,16.179,16.179,0,0,1,2.621,3.357,10.338,10.338,0,0,1,10,0a10.342,10.342,0,0,1,7.38,3.357,16.178,16.178,0,0,1,1.876,2.248,11.5,11.5,0,0,1,.657,1.046.733.733,0,0,1,0,.7,11.5,11.5,0,0,1-.657,1.046,16.178,16.178,0,0,1-1.876,2.248A10.342,10.342,0,0,1,10,14ZM10,1.555A8.7,8.7,0,0,0,3.837,4.42,14.6,14.6,0,0,0,2.145,6.45c-.135.2-.256.38-.361.55.1.165.223.351.361.55A14.6,14.6,0,0,0,3.837,9.58,8.7,8.7,0,0,0,10,12.445,8.7,8.7,0,0,0,16.164,9.58,14.518,14.518,0,0,0,17.855,7.55c.134-.194.256-.379.362-.55-.107-.173-.229-.358-.362-.55A14.518,14.518,0,0,0,16.164,4.42,8.7,8.7,0,0,0,10,1.555Zm0,8.555A3.231,3.231,0,0,1,6.667,7,3.231,3.231,0,0,1,10,3.889,3.232,3.232,0,0,1,13.334,7,3.232,3.232,0,0,1,10,10.111Zm0-4.666A1.616,1.616,0,0,0,8.333,7,1.616,1.616,0,0,0,10,8.555,1.616,1.616,0,0,0,11.667,7,1.616,1.616,0,0,0,10,5.445Z" fill="#242825" data-name="Combined Shape"/>
  </clipPath>
  <filter id="_Icon_Color-4" x="-60.001" y="-44.333" width="140" height="138.67" filterUnits="userSpaceOnUse">
   <feOffset dy="18" input="SourceAlpha"/>
   <feGaussianBlur result="blur" stdDeviation="20"/>
   <feFlood flood-color="#6b67d2" flood-opacity=".349"/>
   <feComposite in2="blur" operator="in" result="result1"/>
   <feComposite in="SourceGraphic" in2="result1"/>
  </filter>
 </defs>
 <g transform="matrix(4.9992 0 0 4.9992 10.007 25.006)" data-name="Grupo 60">
  <path d="m10 14a10.338 10.338 0 0 1-7.379-3.357 16.179 16.179 0 0 1-1.876-2.249 11.508 11.508 0 0 1-0.658-1.046 0.737 0.737 0 0 1 0-0.7 11.5 11.5 0 0 1 0.658-1.042 16.179 16.179 0 0 1 1.876-2.249 10.338 10.338 0 0 1 7.379-3.357 10.342 10.342 0 0 1 7.38 3.357 16.178 16.178 0 0 1 1.876 2.248 11.5 11.5 0 0 1 0.657 1.046 0.733 0.733 0 0 1 0 0.7 11.5 11.5 0 0 1-0.657 1.046 16.178 16.178 0 0 1-1.876 2.248 10.342 10.342 0 0 1-7.38 3.355zm0-12.445a8.7 8.7 0 0 0-6.163 2.865 14.6 14.6 0 0 0-1.692 2.03c-0.135 0.2-0.256 0.38-0.361 0.55 0.1 0.165 0.223 0.351 0.361 0.55a14.6 14.6 0 0 0 1.692 2.03 8.7 8.7 0 0 0 6.163 2.865 8.7 8.7 0 0 0 6.164-2.865 14.518 14.518 0 0 0 1.691-2.03c0.134-0.194 0.256-0.379 0.362-0.55-0.107-0.173-0.229-0.358-0.362-0.55a14.518 14.518 0 0 0-1.691-2.03 8.7 8.7 0 0 0-6.164-2.865zm0 8.555a3.231 3.231 0 0 1-3.333-3.11 3.231 3.231 0 0 1 3.333-3.111 3.232 3.232 0 0 1 3.334 3.111 3.232 3.232 0 0 1-3.334 3.111zm0-4.666a1.616 1.616 0 0 0-1.667 1.556 1.616 1.616 0 0 0 1.667 1.555 1.616 1.616 0 0 0 1.667-1.555 1.616 1.616 0 0 0-1.667-1.555z" fill="#242825" data-name="Combined Shape"/>
  <g clip-path="url(#clip-path-6)" data-name="Enmascarar grupo 60">
   <g filter="url(#_Icon_Color-4)">
    <rect transform="translate(0,-2.33)" width="20.001" height="18.667" fill="#242825" data-name="↳ Icon Color"/>
   </g>
  </g>
 </g>
</svg>
