<svg id="Icon_eye" data-name="Icon / eye" xmlns="http://www.w3.org/2000/svg" xmlns:xlink="http://www.w3.org/1999/xlink" width="20" height="14" viewBox="0 0 20 14">
  <defs>
    <clipPath id="clip-path">
      <path id="Combined_Shape" data-name="Combined Shape" d="M10,14a10.338,10.338,0,0,1-7.379-3.357A16.179,16.179,0,0,1,.745,8.394,11.508,11.508,0,0,1,.087,7.348a.737.737,0,0,1,0-.7A11.5,11.5,0,0,1,.745,5.606,16.179,16.179,0,0,1,2.621,3.357,10.338,10.338,0,0,1,10,0a10.342,10.342,0,0,1,7.38,3.357,16.178,16.178,0,0,1,1.876,2.248,11.5,11.5,0,0,1,.657,1.046.733.733,0,0,1,0,.7,11.5,11.5,0,0,1-.657,1.046,16.178,16.178,0,0,1-1.876,2.248A10.342,10.342,0,0,1,10,14ZM10,1.555A8.7,8.7,0,0,0,3.837,4.42,14.6,14.6,0,0,0,2.145,6.45c-.135.2-.256.38-.361.55.1.165.223.351.361.55A14.6,14.6,0,0,0,3.837,9.58,8.7,8.7,0,0,0,10,12.445,8.7,8.7,0,0,0,16.164,9.58,14.518,14.518,0,0,0,17.855,7.55c.134-.194.256-.379.362-.55-.107-.173-.229-.358-.362-.55A14.518,14.518,0,0,0,16.164,4.42,8.7,8.7,0,0,0,10,1.555Zm0,8.555A3.231,3.231,0,0,1,6.667,7,3.231,3.231,0,0,1,10,3.889,3.232,3.232,0,0,1,13.334,7,3.232,3.232,0,0,1,10,10.111Zm0-4.666A1.616,1.616,0,0,0,8.333,7,1.616,1.616,0,0,0,10,8.555,1.616,1.616,0,0,0,11.667,7,1.616,1.616,0,0,0,10,5.445Z" fill="#242825"/>
    </clipPath>
    <filter id="_Icon_Color" x="-60.001" y="-44.333" width="140.001" height="138.667" filterUnits="userSpaceOnUse">
      <feOffset dy="18" input="SourceAlpha"/>
      <feGaussianBlur stdDeviation="20" result="blur"/>
      <feFlood flood-color="#6b67d2" flood-opacity="0.349"/>
      <feComposite operator="in" in2="blur"/>
      <feComposite in="SourceGraphic"/>
    </filter>
  </defs>
  <g id="Grupo_60" data-name="Grupo 60">
    <path id="Combined_Shape-2" data-name="Combined Shape" d="M10,14a10.338,10.338,0,0,1-7.379-3.357A16.179,16.179,0,0,1,.745,8.394,11.508,11.508,0,0,1,.087,7.348a.737.737,0,0,1,0-.7A11.5,11.5,0,0,1,.745,5.606,16.179,16.179,0,0,1,2.621,3.357,10.338,10.338,0,0,1,10,0a10.342,10.342,0,0,1,7.38,3.357,16.178,16.178,0,0,1,1.876,2.248,11.5,11.5,0,0,1,.657,1.046.733.733,0,0,1,0,.7,11.5,11.5,0,0,1-.657,1.046,16.178,16.178,0,0,1-1.876,2.248A10.342,10.342,0,0,1,10,14ZM10,1.555A8.7,8.7,0,0,0,3.837,4.42,14.6,14.6,0,0,0,2.145,6.45c-.135.2-.256.38-.361.55.1.165.223.351.361.55A14.6,14.6,0,0,0,3.837,9.58,8.7,8.7,0,0,0,10,12.445,8.7,8.7,0,0,0,16.164,9.58,14.518,14.518,0,0,0,17.855,7.55c.134-.194.256-.379.362-.55-.107-.173-.229-.358-.362-.55A14.518,14.518,0,0,0,16.164,4.42,8.7,8.7,0,0,0,10,1.555Zm0,8.555A3.231,3.231,0,0,1,6.667,7,3.231,3.231,0,0,1,10,3.889,3.232,3.232,0,0,1,13.334,7,3.232,3.232,0,0,1,10,10.111Zm0-4.666A1.616,1.616,0,0,0,8.333,7,1.616,1.616,0,0,0,10,8.555,1.616,1.616,0,0,0,11.667,7,1.616,1.616,0,0,0,10,5.445Z" fill="#242825"/>
    <g id="Enmascarar_grupo_60" data-name="Enmascarar grupo 60" clip-path="url(#clip-path)">
      <g transform="matrix(1, 0, 0, 1, 0, 0)" filter="url(#_Icon_Color)">
        <rect id="_Icon_Color-2" data-name="↳ Icon Color" width="20.001" height="18.667" transform="translate(0 -2.33)" fill="#242825"/>
      </g>
    </g>
  </g>
</svg>
