<?xml version="1.0" encoding="UTF-8"?>
<!-- Created with Inkscape (http://www.inkscape.org/) -->
<svg width="120" height="120" version="1.1" viewBox="0 0 120 120" xmlns="http://www.w3.org/2000/svg">
 <path d="m80.977 15.746h-0.21818a24.864 24.864 0 0 0-20.759 11.364 24.864 24.864 0 0 0-20.759-11.364h-0.21818a24.709 24.709 0 0 0-24.477 24.695 53.182 53.182 0 0 0 10.455 29 183.06 183.06 0 0 0 35 33.718 183.06 183.06 0 0 0 35-33.718 53.182 53.182 0 0 0 10.455-29 24.709 24.709 0 0 0-24.477-24.695z" fill="none" stroke="#fff" stroke-width="9.0909" data-name="Icon ionic-ios-heart"/>
</svg>
