<?xml version="1.0" encoding="UTF-8"?>
<!-- Created with Inkscape (http://www.inkscape.org/) -->
<svg width="120" height="120" version="1.1" viewBox="0 0 120 120" xmlns="http://www.w3.org/2000/svg">
 <defs>
  <clipPath id="clip-path-62">
   <path transform="translate(1 1)" d="M11,22h-.032A11,11,0,0,1,3.222,3.222,10.926,10.926,0,0,1,10.976,0h.047a11,11,0,0,1,7.754,18.778A10.925,10.925,0,0,1,11.031,22Zm2.276-2.291A9.008,9.008,0,0,0,19.944,12H15.95A16.278,16.278,0,0,1,13.276,19.708Zm-4.551,0A16.322,16.322,0,0,1,6.053,12h-4A9.006,9.006,0,0,0,8.725,19.708ZM11,19.449A14.371,14.371,0,0,0,13.945,12H8.059A14.406,14.406,0,0,0,11,19.449ZM19.944,10a9.006,9.006,0,0,0-6.669-7.708A16.331,16.331,0,0,1,15.947,10Zm-6,0A14.409,14.409,0,0,0,11,2.551,14.374,14.374,0,0,0,8.056,10ZM6.05,10A16.265,16.265,0,0,1,8.725,2.291,9.006,9.006,0,0,0,2.055,10Z" fill="#242825" data-name="Combined Shape"/>
  </clipPath>
  <filter id="_Icon_Color-89" x="-61" y="-43" width="144" height="144" filterUnits="userSpaceOnUse">
   <feOffset dy="18" input="SourceAlpha"/>
   <feGaussianBlur result="blur" stdDeviation="20"/>
   <feFlood flood-color="#6b67d2" flood-opacity=".349"/>
   <feComposite in2="blur" operator="in" result="result1"/>
   <feComposite in="SourceGraphic" in2="result1"/>
  </filter>
 </defs>
 <g transform="matrix(4.5455 0 0 4.5455 5.4569 5.4546)" data-name="Grupo 57">
  <path transform="translate(1,1)" d="m11 22h-0.032a11 11 0 0 1-7.746-18.778 10.926 10.926 0 0 1 7.754-3.222h0.047a11 11 0 0 1 7.754 18.778 10.925 10.925 0 0 1-7.746 3.222zm2.276-2.291a9.008 9.008 0 0 0 6.668-7.709h-3.994a16.278 16.278 0 0 1-2.674 7.708zm-4.551 0a16.322 16.322 0 0 1-2.672-7.709h-4a9.006 9.006 0 0 0 6.672 7.708zm2.275-0.26a14.371 14.371 0 0 0 2.945-7.449h-5.886a14.406 14.406 0 0 0 2.941 7.449zm8.944-9.449a9.006 9.006 0 0 0-6.669-7.708 16.331 16.331 0 0 1 2.672 7.708zm-6 0a14.409 14.409 0 0 0-2.944-7.449 14.374 14.374 0 0 0-2.944 7.449zm-7.894 0a16.265 16.265 0 0 1 2.675-7.709 9.006 9.006 0 0 0-6.67 7.709z" fill="#242825" data-name="Combined Shape"/>
  <g clip-path="url(#clip-path-62)" data-name="Enmascarar grupo 57">
   <g transform="translate(1,1)" filter="url(#_Icon_Color-89)">
    <rect transform="translate(-1,-1)" width="24" height="24" fill="#242825" data-name="↳ Icon Color"/>
   </g>
  </g>
 </g>
</svg>
