<svg id="Icon_globe" data-name="Icon / globe" xmlns="http://www.w3.org/2000/svg" xmlns:xlink="http://www.w3.org/1999/xlink" width="22" height="22" viewBox="0 0 22 22">
  <defs>
    <clipPath id="clip-path">
      <path id="Combined_Shape" data-name="Combined Shape" d="M11,22h-.032A11,11,0,0,1,3.222,3.222,10.926,10.926,0,0,1,10.976,0h.047a11,11,0,0,1,7.754,18.778A10.925,10.925,0,0,1,11.031,22Zm2.276-2.291A9.008,9.008,0,0,0,19.944,12H15.95A16.278,16.278,0,0,1,13.276,19.708Zm-4.551,0A16.322,16.322,0,0,1,6.053,12h-4A9.006,9.006,0,0,0,8.725,19.708ZM11,19.449A14.371,14.371,0,0,0,13.945,12H8.059A14.406,14.406,0,0,0,11,19.449ZM19.944,10a9.006,9.006,0,0,0-6.669-7.708A16.331,16.331,0,0,1,15.947,10Zm-6,0A14.409,14.409,0,0,0,11,2.551,14.374,14.374,0,0,0,8.056,10ZM6.05,10A16.265,16.265,0,0,1,8.725,2.291,9.006,9.006,0,0,0,2.055,10Z" transform="translate(1 1)" fill="#242825"/>
    </clipPath>
    <filter id="_Icon_Color" x="-61" y="-43" width="144" height="144" filterUnits="userSpaceOnUse">
      <feOffset dy="18" input="SourceAlpha"/>
      <feGaussianBlur stdDeviation="20" result="blur"/>
      <feFlood flood-color="#6b67d2" flood-opacity="0.349"/>
      <feComposite operator="in" in2="blur"/>
      <feComposite in="SourceGraphic"/>
    </filter>
  </defs>
  <g id="Grupo_57" data-name="Grupo 57" transform="translate(-1 -1)">
    <path id="Combined_Shape-2" data-name="Combined Shape" d="M11,22h-.032A11,11,0,0,1,3.222,3.222,10.926,10.926,0,0,1,10.976,0h.047a11,11,0,0,1,7.754,18.778A10.925,10.925,0,0,1,11.031,22Zm2.276-2.291A9.008,9.008,0,0,0,19.944,12H15.95A16.278,16.278,0,0,1,13.276,19.708Zm-4.551,0A16.322,16.322,0,0,1,6.053,12h-4A9.006,9.006,0,0,0,8.725,19.708ZM11,19.449A14.371,14.371,0,0,0,13.945,12H8.059A14.406,14.406,0,0,0,11,19.449ZM19.944,10a9.006,9.006,0,0,0-6.669-7.708A16.331,16.331,0,0,1,15.947,10Zm-6,0A14.409,14.409,0,0,0,11,2.551,14.374,14.374,0,0,0,8.056,10ZM6.05,10A16.265,16.265,0,0,1,8.725,2.291,9.006,9.006,0,0,0,2.055,10Z" transform="translate(1 1)" fill="#242825"/>
    <g id="Enmascarar_grupo_57" data-name="Enmascarar grupo 57" clip-path="url(#clip-path)">
      <g transform="matrix(1, 0, 0, 1, 1, 1)" filter="url(#_Icon_Color)">
        <rect id="_Icon_Color-2" data-name="↳ Icon Color" width="24" height="24" transform="translate(-1 -1)" fill="#242825"/>
      </g>
    </g>
  </g>
</svg>
