<?xml version="1.0" encoding="UTF-8"?>
<!-- Created with Inkscape (http://www.inkscape.org/) -->
<svg width="120" height="120" version="1.1" viewBox="0 0 120 120" xmlns="http://www.w3.org/2000/svg">
 <g transform="scale(2.5)">
  <path d="m43.611 20.083h-1.611v-0.083h-18v8h11.303c-1.649 4.657-6.08 8-11.303 8-6.627 0-12-5.373-12-12s5.373-12 12-12c3.059 0 5.842 1.154 7.961 3.039l5.657-5.657c-3.572-3.329-8.35-5.382-13.618-5.382-11.045 0-20 8.955-20 20s8.955 20 20 20 20-8.955 20-20c0-1.341-0.138-2.65-0.389-3.917z" fill="#ffc107"/>
  <path d="m 6.306,14.691 6.571,4.819 C 14.655,15.108 18.961,12 24,12 c 3.059,0 5.842,1.154 7.961,3.039 L 37.618,9.382 C 34.046,6.053 29.268,4 24,4 16.318,4 9.656,8.337 6.306,14.691 Z" fill="#ff3d00"/>
  <path d="m24 44c5.166 0 9.86-1.977 13.409-5.192l-6.19-5.238c-2.008 1.521-4.504 2.43-7.219 2.43-5.202 0-9.619-3.317-11.283-7.946l-6.522 5.025c3.31 6.477 10.032 10.921 17.805 10.921z" fill="#4caf50"/>
  <path d="m43.611 20.083h-1.611v-0.083h-18v8h11.303c-0.792 2.237-2.231 4.166-4.087 5.571 1e-3 -1e-3 2e-3 -1e-3 3e-3 -2e-3l6.19 5.238c-0.438 0.398 6.591-4.807 6.591-14.807 0-1.341-0.138-2.65-0.389-3.917z" fill="#1976d2"/>
 </g>
</svg>
