<?xml version="1.0" encoding="UTF-8"?>
<!-- Created with Inkscape (http://www.inkscape.org/) -->
<svg width="120" height="120" version="1.1" viewBox="0 0 120 120" xmlns="http://www.w3.org/2000/svg">
 <defs>
  <clipPath id="clip-path-9">
   <path d="M11.5,20.994a1.052,1.052,0,0,1-.933-1.159l.573-5.134H6.926l-.6,5.366a1.056,1.056,0,0,1-2.1-.232L4.8,14.7H1.055a1.05,1.05,0,1,1,0-2.1H5.037l.469-4.2H1.055a1.05,1.05,0,1,1,0-2.1H5.74l.6-5.366a1.056,1.056,0,0,1,2.1.232L7.864,6.3h4.209l.6-5.366a1.056,1.056,0,0,1,2.1.232L14.2,6.3h3.746a1.05,1.05,0,1,1,0,2.1H13.964l-.469,4.2h4.45a1.05,1.05,0,1,1,0,2.1H13.26l-.6,5.366A1.055,1.055,0,0,1,11.612,21,1.073,1.073,0,0,1,11.5,20.994ZM11.37,12.6l.469-4.2H7.63l-.469,4.2Z" fill="#222423" data-name="Combined Shape"/>
  </clipPath>
  <filter id="_Icon_Color-8" x="-63.167" y="-44.1" width="145.33" height="145.2" filterUnits="userSpaceOnUse">
   <feOffset dy="18" input="SourceAlpha"/>
   <feGaussianBlur result="blur" stdDeviation="20"/>
   <feFlood flood-color="#6b67d2" flood-opacity=".349"/>
   <feComposite in2="blur" operator="in" result="result1"/>
   <feComposite in="SourceGraphic" in2="result1"/>
  </filter>
 </defs>
 <g transform="matrix(4.7588 0 0 4.7588 14.789 10.03)" data-name="Grupo 166">
  <path d="m11.5 20.994a1.052 1.052 0 0 1-0.933-1.159l0.573-5.134h-4.214l-0.6 5.366a1.0564 1.0564 0 0 1-2.1-0.232l0.574-5.135h-3.745a1.05 1.05 0 1 1 0-2.1h3.982l0.469-4.2h-4.451a1.05 1.05 0 1 1 0-2.1h4.685l0.6-5.366a1.0564 1.0564 0 0 1 2.1 0.232l-0.576 5.134h4.209l0.6-5.366a1.0564 1.0564 0 0 1 2.1 0.232l-0.573 5.134h3.746a1.05 1.05 0 1 1 0 2.1h-3.982l-0.469 4.2h4.45a1.05 1.05 0 1 1 0 2.1h-4.685l-0.6 5.366a1.055 1.055 0 0 1-1.048 0.934 1.073 1.073 0 0 1-0.112-6e-3zm-0.13-8.394 0.469-4.2h-4.209l-0.469 4.2z" fill="#222423" data-name="Combined Shape"/>
  <g clip-path="url(#clip-path-9)" data-name="Enmascarar grupo 166">
   <g filter="url(#_Icon_Color-8)">
    <rect transform="translate(-3.17,-2.1)" width="25.333" height="25.199" fill="#222423" data-name="↳ Icon Color"/>
   </g>
  </g>
 </g>
</svg>
