<?xml version="1.0" encoding="UTF-8"?>
<!-- Created with Inkscape (http://www.inkscape.org/) -->
<svg width="120" height="120" version="1.1" viewBox="0 0 120 120" xmlns="http://www.w3.org/2000/svg">
 <defs>
  <clipPath id="clip-path">
   <path id="Combined_Shape" transform="translate(2 1)" d="M13,22H3a3,3,0,0,1-3-3V8a1,1,0,0,1,.386-.789l9-7a1,1,0,0,1,1.228,0l9,7A1,1,0,0,1,20,8V19a3,3,0,0,1-3,3Zm4-2a1,1,0,0,0,1-1V8.489L10,2.267,2,8.489V19a1,1,0,0,0,1,1H6V11a1,1,0,0,1,1-1h6a1,1,0,0,1,1,1v9Zm-5,0V12H8v8Z" fill="#939393" data-name="Combined Shape"/>
  </clipPath>
  <filter id="_Icon_Color" x="-58.003" y="-40" width="144" height="144" filterUnits="userSpaceOnUse">
   <feOffset dy="18" input="SourceAlpha"/>
   <feGaussianBlur result="blur" stdDeviation="20"/>
   <feFlood flood-color="#6b67d2" flood-opacity=".349"/>
   <feComposite in2="blur" operator="in" result="result1"/>
   <feComposite in="SourceGraphic" in2="result1"/>
  </filter>
 </defs>
 <g id="Icon_home" transform="matrix(4.5455 0 0 4.5455 14.545 9.9986)" data-name="Icon / home">
  <g transform="translate(-2,-1)" data-name="Grupo 149">
   <path transform="translate(2,1)" d="m13 22h-10a3 3 0 0 1-3-3v-11a1 1 0 0 1 0.386-0.789l9-7a1 1 0 0 1 1.228 0l9 7a1 1 0 0 1 0.386 0.789v11a3 3 0 0 1-3 3zm4-2a1 1 0 0 0 1-1v-10.511l-8-6.222-8 6.222v10.511a1 1 0 0 0 1 1h3v-9a1 1 0 0 1 1-1h6a1 1 0 0 1 1 1v9zm-5 0v-8h-4v8z" fill="#939393" data-name="Combined Shape"/>
   <g clip-path="url(#clip-path)" data-name="Enmascarar grupo 149">
    <g transform="translate(-2,-2)" filter="url(#_Icon_Color)">
     <rect transform="translate(2,2)" width="24" height="24" fill="#939393" data-name="↳ Icon Color"/>
    </g>
   </g>
  </g>
 </g>
</svg>
