<svg xmlns="http://www.w3.org/2000/svg" xmlns:xlink="http://www.w3.org/1999/xlink" width="28" height="28" viewBox="0 0 28 28">
  <defs>
    <clipPath id="clip-path">
      <path id="Combined_Shape" data-name="Combined Shape" d="M13,22H3a3,3,0,0,1-3-3V8a1,1,0,0,1,.386-.789l9-7a1,1,0,0,1,1.228,0l9,7A1,1,0,0,1,20,8V19a3,3,0,0,1-3,3Zm4-2a1,1,0,0,0,1-1V8.489L10,2.267,2,8.489V19a1,1,0,0,0,1,1H6V11a1,1,0,0,1,1-1h6a1,1,0,0,1,1,1v9Zm-5,0V12H8v8Z" transform="translate(2 1)" fill="#939393"/>
    </clipPath>
    <filter id="_Icon_Color" x="-58.003" y="-40" width="144" height="144" filterUnits="userSpaceOnUse">
      <feOffset dy="18" input="SourceAlpha"/>
      <feGaussianBlur stdDeviation="20" result="blur"/>
      <feFlood flood-color="#6b67d2" flood-opacity="0.349"/>
      <feComposite operator="in" in2="blur"/>
      <feComposite in="SourceGraphic"/>
    </filter>
  </defs>
  <g id="Grupo_20716" data-name="Grupo 20716" transform="translate(-3220 2108)">
    <rect id="Rectángulo_3596" data-name="Rectángulo 3596" width="28" height="28" transform="translate(3220 -2108)" fill="none"/>
    <g id="Icon_home" data-name="Icon / home" transform="translate(3223.997 -2105)">
      <g id="Grupo_149" data-name="Grupo 149" transform="translate(-2 -1)">
        <path id="Combined_Shape-2" data-name="Combined Shape" d="M13,22H3a3,3,0,0,1-3-3V8a1,1,0,0,1,.386-.789l9-7a1,1,0,0,1,1.228,0l9,7A1,1,0,0,1,20,8V19a3,3,0,0,1-3,3Zm4-2a1,1,0,0,0,1-1V8.489L10,2.267,2,8.489V19a1,1,0,0,0,1,1H6V11a1,1,0,0,1,1-1h6a1,1,0,0,1,1,1v9Zm-5,0V12H8v8Z" transform="translate(2 1)" fill="#939393"/>
        <g id="Enmascarar_grupo_149" data-name="Enmascarar grupo 149" clip-path="url(#clip-path)">
          <g transform="matrix(1, 0, 0, 1, -2, -2)" filter="url(#_Icon_Color)">
            <rect id="_Icon_Color-2" data-name="↳ Icon Color" width="24" height="24" transform="translate(2 2)" fill="#939393"/>
          </g>
        </g>
      </g>
    </g>
  </g>
</svg>
