<?xml version="1.0" encoding="UTF-8"?>
<!-- Created with Inkscape (http://www.inkscape.org/) -->
<svg width="120" height="120" version="1.1" viewBox="0 0 120 120" xmlns="http://www.w3.org/2000/svg">
 <defs>
  <clipPath id="clip-path-0">
   <path transform="translate(2 1)" d="M3,22a3,3,0,0,1-3-3V12A3,3,0,0,1,3,9H4V6A6,6,0,0,1,16,6V9h1a3,3,0,0,1,3,3v7a3,3,0,0,1-3,3ZM2,12v7a1,1,0,0,0,1,1H17a1,1,0,0,0,1-1V12a1,1,0,0,0-1-1H3A1,1,0,0,0,2,12ZM14,9V6A4,4,0,1,0,6,6V9Z" fill="#222423" data-name="Combined Shape"/>
  </clipPath>
  <filter id="_Icon_Color-1" x="-58" y="-40" width="144" height="144" filterUnits="userSpaceOnUse">
   <feOffset dy="18" input="SourceAlpha"/>
   <feGaussianBlur result="blur" stdDeviation="20"/>
   <feFlood flood-color="#6b67d2" flood-opacity=".349"/>
   <feComposite in2="blur" operator="in" result="result1"/>
   <feComposite in="SourceGraphic" in2="result1"/>
  </filter>
 </defs>
 <g id="Icon_lock" transform="matrix(4.5455 0 0 4.5455 14.545 10)" data-name="Icon / lock">
  <g transform="translate(-2,-1)" data-name="Grupo 179">
   <path transform="translate(2,1)" d="m3 22a3 3 0 0 1-3-3v-7a3 3 0 0 1 3-3h1v-3a6 6 0 0 1 12 0v3h1a3 3 0 0 1 3 3v7a3 3 0 0 1-3 3zm-1-10v7a1 1 0 0 0 1 1h14a1 1 0 0 0 1-1v-7a1 1 0 0 0-1-1h-14a1 1 0 0 0-1 1zm12-3v-3a4 4 0 1 0-8 0v3z" fill="#222423" data-name="Combined Shape"/>
   <g clip-path="url(#clip-path-0)" data-name="Enmascarar grupo 179">
    <g transform="translate(-2,-2)" filter="url(#_Icon_Color-1)">
     <rect transform="translate(2,2)" width="24" height="24" fill="#222423" data-name="↳ Icon Color"/>
    </g>
   </g>
  </g>
 </g>
</svg>
