<svg xmlns="http://www.w3.org/2000/svg" xmlns:xlink="http://www.w3.org/1999/xlink" width="28" height="28" viewBox="0 0 28 28">
  <defs>
    <clipPath id="clip-path">
      <path id="Combined_Shape" data-name="Combined Shape" d="M3,22a3,3,0,0,1-3-3V12A3,3,0,0,1,3,9H4V6A6,6,0,0,1,16,6V9h1a3,3,0,0,1,3,3v7a3,3,0,0,1-3,3ZM2,12v7a1,1,0,0,0,1,1H17a1,1,0,0,0,1-1V12a1,1,0,0,0-1-1H3A1,1,0,0,0,2,12ZM14,9V6A4,4,0,1,0,6,6V9Z" transform="translate(2 1)" fill="#222423"/>
    </clipPath>
    <filter id="_Icon_Color" x="-58" y="-40" width="144" height="144" filterUnits="userSpaceOnUse">
      <feOffset dy="18" input="SourceAlpha"/>
      <feGaussianBlur stdDeviation="20" result="blur"/>
      <feFlood flood-color="#6b67d2" flood-opacity="0.349"/>
      <feComposite operator="in" in2="blur"/>
      <feComposite in="SourceGraphic"/>
    </filter>
  </defs>
  <g id="Grupo_20776" data-name="Grupo 20776" transform="translate(2339 4705)">
    <g id="Icon_lock" data-name="Icon / lock" transform="translate(-2335 -4702)">
      <g id="Grupo_179" data-name="Grupo 179" transform="translate(-2 -1)">
        <path id="Combined_Shape-2" data-name="Combined Shape" d="M3,22a3,3,0,0,1-3-3V12A3,3,0,0,1,3,9H4V6A6,6,0,0,1,16,6V9h1a3,3,0,0,1,3,3v7a3,3,0,0,1-3,3ZM2,12v7a1,1,0,0,0,1,1H17a1,1,0,0,0,1-1V12a1,1,0,0,0-1-1H3A1,1,0,0,0,2,12ZM14,9V6A4,4,0,1,0,6,6V9Z" transform="translate(2 1)" fill="#222423"/>
        <g id="Enmascarar_grupo_179" data-name="Enmascarar grupo 179" clip-path="url(#clip-path)">
          <g transform="matrix(1, 0, 0, 1, -2, -2)" filter="url(#_Icon_Color)">
            <rect id="_Icon_Color-2" data-name="↳ Icon Color" width="24" height="24" transform="translate(2 2)" fill="#222423"/>
          </g>
        </g>
      </g>
    </g>
    <rect id="Rectángulo_3616" data-name="Rectángulo 3616" width="28" height="28" transform="translate(-2339 -4705)" fill="none"/>
  </g>
</svg>
