<svg xmlns="http://www.w3.org/2000/svg" xmlns:xlink="http://www.w3.org/1999/xlink" width="28" height="28" viewBox="0 0 28 28">
  <defs>
    <clipPath id="clip-path">
      <path id="Shape" d="M1.1,22a1.1,1.1,0,0,1-.889-.462,1.083,1.083,0,0,1-.148-.987L2.007,14.7A10.25,10.25,0,0,1,1.1,10.449,10.458,10.458,0,0,1,11.526,0h.025l.61,0A10.444,10.444,0,0,1,22,9.9v.548A10.453,10.453,0,0,1,11.553,20.9h-.028A10.255,10.255,0,0,1,7.3,19.992L1.449,21.942A1.114,1.114,0,0,1,1.1,22ZM11.529,2.2A8.243,8.243,0,0,0,4.173,14.133a1.107,1.107,0,0,1,.061.843L2.841,19.159l4.182-1.394a1.093,1.093,0,0,1,.348-.057,1.108,1.108,0,0,1,.5.118,8.16,8.16,0,0,0,3.665.872h.019a8.251,8.251,0,0,0,7.378-4.565,8.154,8.154,0,0,0,.872-3.681l0-.492A8.244,8.244,0,0,0,17.412,4.6,8.124,8.124,0,0,0,12.1,2.2h-.571Z" transform="translate(0)" fill="#939393"/>
    </clipPath>
    <filter id="_Icon_Color" x="-59.203" y="-41.201" width="146.398" height="146.398" filterUnits="userSpaceOnUse">
      <feOffset dy="18" input="SourceAlpha"/>
      <feGaussianBlur stdDeviation="20" result="blur"/>
      <feFlood flood-color="#6b67d2" flood-opacity="0.349"/>
      <feComposite operator="in" in2="blur"/>
      <feComposite in="SourceGraphic"/>
    </filter>
  </defs>
  <g id="Grupo_20712" data-name="Grupo 20712" transform="translate(-3464 2108)">
    <g id="Icon_message-circle" data-name="Icon / message-circle" transform="translate(3466.998 -2105.001)">
      <g id="Grupo_28" data-name="Grupo 28" transform="translate(0)">
        <g id="Enmascarar_grupo_28" data-name="Enmascarar grupo 28" clip-path="url(#clip-path)">
          <g transform="matrix(1, 0, 0, 1, -3, -3)" filter="url(#_Icon_Color)">
            <rect id="_Icon_Color-2" data-name="↳ Icon Color" width="26.398" height="26.398" transform="translate(0.8 0.8)" fill="#939393"/>
          </g>
        </g>
      </g>
    </g>
    <rect id="Rectángulo_3595" data-name="Rectángulo 3595" width="28" height="28" transform="translate(3464 -2108)" fill="none"/>
  </g>
</svg>
