<?xml version="1.0" encoding="UTF-8"?>
<!-- Created with Inkscape (http://www.inkscape.org/) -->
<svg width="120" height="120" version="1.1" viewBox="0 0 120 120" xmlns="http://www.w3.org/2000/svg">
 <g id="Icon_feather-image" transform="matrix(4.1667 0 0 4.1667 -2.5 -2.5)" fill="none" stroke="#222423" stroke-linecap="round" stroke-linejoin="round" stroke-width="3" data-name="Icon feather-image">
  <path d="m6.833 4.5h16.334a2.333 2.333 0 0 1 2.333 2.333v16.334a2.333 2.333 0 0 1-2.333 2.333h-16.334a2.333 2.333 0 0 1-2.333-2.333v-16.334a2.333 2.333 0 0 1 2.333-2.333z" data-name="Trazado 12353"/>
  <path transform="translate(-1.6,-1.6)" d="m15 12.75a2.25 2.25 0 1 1-2.25-2.25 2.25 2.25 0 0 1 2.25 2.25z" data-name="Trazado 12354"/>
  <path transform="translate(0,-6)" d="M 25.5,22.5 19.875,15 7.5,31.5" data-name="Trazado 12355"/>
 </g>
</svg>
