<svg id="Icon_map-pin" data-name="Icon / map-pin" xmlns="http://www.w3.org/2000/svg" xmlns:xlink="http://www.w3.org/1999/xlink" width="10" height="12" viewBox="0 0 10 12">
  <defs>
    <clipPath id="clip-path">
      <path id="Combined_Shape" data-name="Combined Shape" d="M5,12a.5.5,0,0,1-.277-.084c-.043-.029-.114-.078-.209-.146-.158-.114-.336-.249-.529-.4a15.593,15.593,0,0,1-1.6-1.462A7.348,7.348,0,0,1,0,5,5,5,0,0,1,10,5,7.346,7.346,0,0,1,7.613,9.906a15.525,15.525,0,0,1-1.6,1.462c-.177.141-.355.276-.529.4-.112.081-.181.128-.207.145A.5.5,0,0,1,5,12ZM5,1A4,4,0,0,0,1,5,6.413,6.413,0,0,0,3.113,9.219a14.505,14.505,0,0,0,1.5,1.367c.131.1.262.206.392.3.13-.1.262-.2.392-.3a14.505,14.505,0,0,0,1.5-1.367A6.412,6.412,0,0,0,9,5,4,4,0,0,0,5,1ZM5,7A2,2,0,1,1,7,5,2,2,0,0,1,5,7ZM5,4A1,1,0,1,0,6,5,1,1,0,0,0,5,4Z" fill="#fff"/>
    </clipPath>
    <filter id="_Icon_Color" x="-61" y="-42" width="132" height="132" filterUnits="userSpaceOnUse">
      <feOffset dy="18" input="SourceAlpha"/>
      <feGaussianBlur stdDeviation="20" result="blur"/>
      <feFlood flood-color="#6b67d2" flood-opacity="0.349"/>
      <feComposite operator="in" in2="blur"/>
      <feComposite in="SourceGraphic"/>
    </filter>
  </defs>
  <g id="Grupo_92" data-name="Grupo 92">
    <path id="Combined_Shape-2" data-name="Combined Shape" d="M5,12a.5.5,0,0,1-.277-.084c-.043-.029-.114-.078-.209-.146-.158-.114-.336-.249-.529-.4a15.593,15.593,0,0,1-1.6-1.462A7.348,7.348,0,0,1,0,5,5,5,0,0,1,10,5,7.346,7.346,0,0,1,7.613,9.906a15.525,15.525,0,0,1-1.6,1.462c-.177.141-.355.276-.529.4-.112.081-.181.128-.207.145A.5.5,0,0,1,5,12ZM5,1A4,4,0,0,0,1,5,6.413,6.413,0,0,0,3.113,9.219a14.505,14.505,0,0,0,1.5,1.367c.131.1.262.206.392.3.13-.1.262-.2.392-.3a14.505,14.505,0,0,0,1.5-1.367A6.412,6.412,0,0,0,9,5,4,4,0,0,0,5,1ZM5,7A2,2,0,1,1,7,5,2,2,0,0,1,5,7ZM5,4A1,1,0,1,0,6,5,1,1,0,0,0,5,4Z" fill="#fff"/>
    <g id="Enmascarar_grupo_92" data-name="Enmascarar grupo 92" clip-path="url(#clip-path)">
      <g transform="matrix(1, 0, 0, 1, 0, 0)" filter="url(#_Icon_Color)">
        <rect id="_Icon_Color-2" data-name="↳ Icon Color" width="12" height="12" transform="translate(-1 0)" fill="#fff"/>
      </g>
    </g>
  </g>
</svg>
