<?xml version="1.0" encoding="UTF-8"?>
<!-- Created with Inkscape (http://www.inkscape.org/) -->
<svg width="120" height="120" version="1.1" viewBox="0 0 120 120" xmlns="http://www.w3.org/2000/svg">
 <defs>
  <clipPath id="clip-path-95">
   <path transform="translate(1 1)" d="M3.222,18.778A11,11,0,1,1,18.778,3.222,11,11,0,1,1,3.222,18.778ZM2,11a9,9,0,1,0,9-9A9.01,9.01,0,0,0,2,11Zm6,4V7a1,1,0,0,1,1.554-.832l6,4a1,1,0,0,1,0,1.664l-6,4A.989.989,0,0,1,9,16,1,1,0,0,1,8,15Z" fill="#939393" data-name="Combined Shape"/>
  </clipPath>
  <filter id="_Icon_Color-27" x="-58" y="-40.5" width="144" height="144" filterUnits="userSpaceOnUse">
   <feOffset dy="18" input="SourceAlpha"/>
   <feGaussianBlur result="blur" stdDeviation="20"/>
   <feFlood flood-color="#6b67d2" flood-opacity=".349"/>
   <feComposite in2="blur" operator="in" result="result1"/>
   <feComposite in="SourceGraphic" in2="result1"/>
  </filter>
 </defs>
 <g id="Icon_play-circle" transform="matrix(4.524 0 0 4.524 10.236 10.236)" data-name="Icon / play-circle">
  <g transform="translate(-1,-1)" data-name="Grupo 132">
   <path transform="translate(1,1)" d="m3.222 18.778a11 11 0 1 1 15.556-15.556 11 11 0 1 1-15.556 15.556zm-1.222-7.778a9 9 0 1 0 9-9 9.01 9.01 0 0 0-9 9zm6 4v-8a1 1 0 0 1 1.554-0.832l6 4a1 1 0 0 1 0 1.664l-6 4a0.989 0.989 0 0 1-0.554 0.168 1 1 0 0 1-1-1z" fill="#939393" data-name="Combined Shape"/>
   <g clip-path="url(#clip-path-95)" data-name="Enmascarar grupo 132">
    <g transform="translate(-2,-1.5)" filter="url(#_Icon_Color-27)">
     <rect transform="translate(2,1.5)" width="24" height="24" fill="#939393" data-name="↳ Icon Color"/>
    </g>
   </g>
  </g>
 </g>
</svg>
