<svg xmlns="http://www.w3.org/2000/svg" xmlns:xlink="http://www.w3.org/1999/xlink" width="28" height="28" viewBox="0 0 28 28">
  <defs>
    <clipPath id="clip-path">
      <path id="Combined_Shape" data-name="Combined Shape" d="M19.207,20.692l-4.76-4.761a8.934,8.934,0,1,1,1.485-1.485l4.761,4.76a1.05,1.05,0,0,1-1.486,1.486ZM2.1,8.924a6.822,6.822,0,0,0,11.612,4.861l.036-.038.038-.036A6.824,6.824,0,1,0,2.1,8.924Z" fill="#242825"/>
    </clipPath>
    <filter id="_Icon_Color" x="-58.1" y="-40.601" width="145.2" height="145.2" filterUnits="userSpaceOnUse">
      <feOffset dy="18" input="SourceAlpha"/>
      <feGaussianBlur stdDeviation="20" result="blur"/>
      <feFlood flood-color="#6b67d2" flood-opacity="0.349"/>
      <feComposite operator="in" in2="blur"/>
      <feComposite in="SourceGraphic"/>
    </filter>
  </defs>
  <g id="Grupo_20704" data-name="Grupo 20704" transform="translate(-3570 2615)">
    <g id="Icon_search" data-name="Icon / search" transform="translate(3574 -2611.501)">
      <g id="Grupo_8" data-name="Grupo 8">
        <path id="Combined_Shape-2" data-name="Combined Shape" d="M19.207,20.692l-4.76-4.761a8.934,8.934,0,1,1,1.485-1.485l4.761,4.76a1.05,1.05,0,0,1-1.486,1.486ZM2.1,8.924a6.822,6.822,0,0,0,11.612,4.861l.036-.038.038-.036A6.824,6.824,0,1,0,2.1,8.924Z" fill="#242825"/>
        <g id="Enmascarar_grupo_8" data-name="Enmascarar grupo 8" clip-path="url(#clip-path)">
          <g transform="matrix(1, 0, 0, 1, -4, -3.5)" filter="url(#_Icon_Color)">
            <rect id="_Icon_Color-2" data-name="↳ Icon Color" width="25.2" height="25.2" transform="translate(1.9 1.4)" fill="#242825"/>
          </g>
        </g>
      </g>
    </g>
    <rect id="Rectángulo_3591" data-name="Rectángulo 3591" width="28" height="28" transform="translate(3570 -2615)" fill="none"/>
  </g>
</svg>
