<?xml version="1.0" encoding="UTF-8"?>
<!-- Created with Inkscape (http://www.inkscape.org/) -->
<svg width="120" height="120" version="1.1" viewBox="0 0 120 120" xmlns="http://www.w3.org/2000/svg">
 <g transform="matrix(3.0303 0 0 3.0303 -20.303 -1641.5)" data-name="Grupo 2080">
  <circle transform="translate(10,545)" cx="16.5" cy="16.5" r="16.5" fill="#f1f1f1" data-name="Elipse 140"/>
  <path id="Icon_awesome-hashtag" transform="translate(19.686 552.44)" d="m13.4 6.816 0.222-1.216a0.365 0.365 0 0 0-0.359-0.429h-2.276l0.445-2.491a0.365 0.365 0 0 0-0.359-0.429h-1.237a0.365 0.365 0 0 0-0.359 0.3l-0.468 2.619h-3l0.445-2.491a0.365 0.365 0 0 0-0.359-0.429h-1.237a0.365 0.365 0 0 0-0.359 0.3l-0.468 2.62h-2.406a0.365 0.365 0 0 0-0.359 0.3l-0.217 1.218a0.365 0.365 0 0 0 0.359 0.429h2.276l-0.7 3.894h-2.402a0.365 0.365 0 0 0-0.359 0.3l-0.217 1.217a0.365 0.365 0 0 0 0.359 0.429h2.276l-0.441 2.492a0.365 0.365 0 0 0 0.359 0.429h1.232a0.365 0.365 0 0 0 0.359-0.3l0.468-2.619h3l-0.445 2.491a0.365 0.365 0 0 0 0.359 0.429h1.237a0.365 0.365 0 0 0 0.359-0.3l0.472-2.621h2.4a0.365 0.365 0 0 0 0.359-0.3l0.217-1.217a0.365 0.365 0 0 0-0.359-0.429h-2.273l0.7-3.894h2.406a0.365 0.365 0 0 0 0.359-0.3zm-5.434 4.195h-3l0.7-3.894h3z" fill="#222423" data-name="Icon awesome-hashtag"/>
 </g>
</svg>
