<?xml version="1.0" encoding="UTF-8"?>
<!-- Created with Inkscape (http://www.inkscape.org/) -->
<svg width="120" height="120" version="1.1" viewBox="0 0 120 120" xmlns="http://www.w3.org/2000/svg">
 <path id="Icon_ionic-ios-share-alt" d="m109.11 53.338-36.735-34.369a1.8735 1.8735 0 0 0-1.4566-0.62294c-1.1475 0.05152-2.6042 0.85712-2.6042 2.0843v17.236a1.1147 1.1147 0 0 1-0.93675 1.0679c-36.533 5.6205-51.914 32.936-57.357 61.315-0.20608 1.1194 1.3021 2.1592 2.0046 1.274 13.33-16.796 29.55-27.756 55.193-27.943a1.288 1.288 0 0 1 1.0913 1.2506v16.922a2.2341 2.2341 0 0 0 3.7751 1.3817l37.001-34.964a2.8758 2.8758 0 0 0 0.91332-2.1873 3.4894 3.4894 0 0 0-0.88991-2.4449z" fill="#b8b8b8" stroke-width="4.6837" data-name="Icon ionic-ios-share-alt"/>
</svg>
