<?xml version="1.0" encoding="UTF-8"?>
<!-- Created with Inkscape (http://www.inkscape.org/) -->
<svg width="120" height="120" version="1.1" viewBox="0 0 120 120" xmlns="http://www.w3.org/2000/svg">
 <defs>
  <clipPath id="clip-path-567">
   <path d="M18.578,19.756l-3.722-3.722A9.238,9.238,0,0,1,10,17.5a10.086,10.086,0,0,1-7.378-3.6,17.109,17.109,0,0,1-1.876-2.41,12.567,12.567,0,0,1-.658-1.121A.833.833,0,0,1,.1,9.606a16.212,16.212,0,0,1,3.708-4.62L.244,1.423A.834.834,0,0,1,1.423.244L8.811,7.632l.022.022L19.756,18.578a.833.833,0,1,1-1.178,1.178ZM1.786,10c.1.181.224.377.359.587a15.475,15.475,0,0,0,1.692,2.174,8.484,8.484,0,0,0,6.149,3.07,7.558,7.558,0,0,0,3.657-1.012l-1.935-1.935A3.333,3.333,0,0,1,7.113,8.292L4.989,6.168A14.54,14.54,0,0,0,1.786,10Zm6.537.472a1.666,1.666,0,0,0,2.142,1.169L8.357,9.535A1.665,1.665,0,0,0,8.323,10.474ZM16.83,13.3a.834.834,0,0,1-.1-1.175A14.555,14.555,0,0,0,18.215,10c-.105-.181-.225-.378-.361-.588a15.408,15.408,0,0,0-1.691-2.174A8.489,8.489,0,0,0,10,4.167a6.768,6.768,0,0,0-1.558.178A.833.833,0,0,1,8.06,2.722,8.451,8.451,0,0,1,10,2.5a10.086,10.086,0,0,1,7.379,3.6,17.067,17.067,0,0,1,1.876,2.41,12.635,12.635,0,0,1,.657,1.121.832.832,0,0,1-.01.766,16.208,16.208,0,0,1-1.9,2.8.833.833,0,0,1-1.174.1Z" fill="#1b8f26" data-name="Combined Shape"/>
  </clipPath>
  <filter id="_Icon_Color-6" x="-56.5" y="-38" width="140" height="140" filterUnits="userSpaceOnUse">
   <feOffset dy="18" input="SourceAlpha"/>
   <feGaussianBlur result="blur" stdDeviation="20"/>
   <feFlood flood-color="#6b67d2" flood-opacity=".349"/>
   <feComposite in2="blur" operator="in" result="result1"/>
   <feComposite in="SourceGraphic" in2="result1"/>
  </filter>
 </defs>
 <g id="Icon_eye-off" transform="matrix(4.9991 0 0 4.9991 9.9931 9.9569)" data-name="Icon / eye-off">
  <g data-name="Grupo 218">
   <path d="m18.578 19.756-3.722-3.722a9.238 9.238 0 0 1-4.856 1.466 10.086 10.086 0 0 1-7.378-3.6 17.109 17.109 0 0 1-1.876-2.41 12.567 12.567 0 0 1-0.658-1.121 0.833 0.833 0 0 1 0.012-0.763 16.212 16.212 0 0 1 3.708-4.62l-3.564-3.563a0.834 0.834 0 0 1 1.179-1.179l7.41 7.41 10.923 10.924a0.833 0.833 0 1 1-1.178 1.178zm-16.792-9.756c0.1 0.181 0.224 0.377 0.359 0.587a15.475 15.475 0 0 0 1.692 2.174 8.484 8.484 0 0 0 6.149 3.07 7.558 7.558 0 0 0 3.657-1.012l-1.935-1.935a3.333 3.333 0 0 1-4.595-4.592l-2.124-2.124a14.54 14.54 0 0 0-3.203 3.832zm6.537 0.472a1.666 1.666 0 0 0 2.142 1.169l-2.108-2.106a1.665 1.665 0 0 0-0.034 0.939zm8.507 2.828a0.834 0.834 0 0 1-0.1-1.175 14.555 14.555 0 0 0 1.485-2.125c-0.105-0.181-0.225-0.378-0.361-0.588a15.408 15.408 0 0 0-1.691-2.174 8.489 8.489 0 0 0-6.163-3.071 6.768 6.768 0 0 0-1.558 0.178 0.83367 0.83367 0 0 1-0.382-1.623 8.451 8.451 0 0 1 1.94-0.222 10.086 10.086 0 0 1 7.379 3.6 17.067 17.067 0 0 1 1.876 2.41 12.635 12.635 0 0 1 0.657 1.121 0.832 0.832 0 0 1-0.01 0.766 16.208 16.208 0 0 1-1.9 2.8 0.833 0.833 0 0 1-1.174 0.1z" fill="#1b8f26" data-name="Combined Shape"/>
   <g clip-path="url(#clip-path-567)" data-name="Enmascarar grupo 218">
    <g transform="translate(-3.5,-4)" filter="url(#_Icon_Color-6)">
     <rect transform="translate(3.5,4)" width="20" height="20" fill="#1b8f26" data-name="↳ Icon Color"/>
    </g>
   </g>
  </g>
 </g>
</svg>
