<svg xmlns="http://www.w3.org/2000/svg" xmlns:xlink="http://www.w3.org/1999/xlink" width="28" height="28" viewBox="0 0 28 28">
  <defs>
    <clipPath id="clip-path">
      <path id="Combined_Shape" data-name="Combined Shape" d="M18.578,19.756l-3.722-3.722A9.238,9.238,0,0,1,10,17.5a10.086,10.086,0,0,1-7.378-3.6,17.109,17.109,0,0,1-1.876-2.41,12.567,12.567,0,0,1-.658-1.121A.833.833,0,0,1,.1,9.606a16.212,16.212,0,0,1,3.708-4.62L.244,1.423A.834.834,0,0,1,1.423.244L8.811,7.632l.022.022L19.756,18.578a.833.833,0,1,1-1.178,1.178ZM1.786,10c.1.181.224.377.359.587a15.475,15.475,0,0,0,1.692,2.174,8.484,8.484,0,0,0,6.149,3.07,7.558,7.558,0,0,0,3.657-1.012l-1.935-1.935A3.333,3.333,0,0,1,7.113,8.292L4.989,6.168A14.54,14.54,0,0,0,1.786,10Zm6.537.472a1.666,1.666,0,0,0,2.142,1.169L8.357,9.535A1.665,1.665,0,0,0,8.323,10.474ZM16.83,13.3a.834.834,0,0,1-.1-1.175A14.555,14.555,0,0,0,18.215,10c-.105-.181-.225-.378-.361-.588a15.408,15.408,0,0,0-1.691-2.174A8.489,8.489,0,0,0,10,4.167a6.768,6.768,0,0,0-1.558.178A.833.833,0,0,1,8.06,2.722,8.451,8.451,0,0,1,10,2.5a10.086,10.086,0,0,1,7.379,3.6,17.067,17.067,0,0,1,1.876,2.41,12.635,12.635,0,0,1,.657,1.121.832.832,0,0,1-.01.766,16.208,16.208,0,0,1-1.9,2.8.833.833,0,0,1-1.174.1Z" fill="#1b8f26"/>
    </clipPath>
    <filter id="_Icon_Color" x="-56.5" y="-38" width="140" height="140" filterUnits="userSpaceOnUse">
      <feOffset dy="18" input="SourceAlpha"/>
      <feGaussianBlur stdDeviation="20" result="blur"/>
      <feFlood flood-color="#6b67d2" flood-opacity="0.349"/>
      <feComposite operator="in" in2="blur"/>
      <feComposite in="SourceGraphic"/>
    </filter>
  </defs>
  <g id="Grupo_20752" data-name="Grupo 20752" transform="translate(-316 -357)">
    <g id="Icon_eye-off" data-name="Icon / eye-off" transform="translate(319.5 361)">
      <g id="Grupo_218" data-name="Grupo 218" transform="translate(0 0)">
        <path id="Combined_Shape-2" data-name="Combined Shape" d="M18.578,19.756l-3.722-3.722A9.238,9.238,0,0,1,10,17.5a10.086,10.086,0,0,1-7.378-3.6,17.109,17.109,0,0,1-1.876-2.41,12.567,12.567,0,0,1-.658-1.121A.833.833,0,0,1,.1,9.606a16.212,16.212,0,0,1,3.708-4.62L.244,1.423A.834.834,0,0,1,1.423.244L8.811,7.632l.022.022L19.756,18.578a.833.833,0,1,1-1.178,1.178ZM1.786,10c.1.181.224.377.359.587a15.475,15.475,0,0,0,1.692,2.174,8.484,8.484,0,0,0,6.149,3.07,7.558,7.558,0,0,0,3.657-1.012l-1.935-1.935A3.333,3.333,0,0,1,7.113,8.292L4.989,6.168A14.54,14.54,0,0,0,1.786,10Zm6.537.472a1.666,1.666,0,0,0,2.142,1.169L8.357,9.535A1.665,1.665,0,0,0,8.323,10.474ZM16.83,13.3a.834.834,0,0,1-.1-1.175A14.555,14.555,0,0,0,18.215,10c-.105-.181-.225-.378-.361-.588a15.408,15.408,0,0,0-1.691-2.174A8.489,8.489,0,0,0,10,4.167a6.768,6.768,0,0,0-1.558.178A.833.833,0,0,1,8.06,2.722,8.451,8.451,0,0,1,10,2.5a10.086,10.086,0,0,1,7.379,3.6,17.067,17.067,0,0,1,1.876,2.41,12.635,12.635,0,0,1,.657,1.121.832.832,0,0,1-.01.766,16.208,16.208,0,0,1-1.9,2.8.833.833,0,0,1-1.174.1Z" fill="#1b8f26"/>
        <g id="Enmascarar_grupo_218" data-name="Enmascarar grupo 218" clip-path="url(#clip-path)">
          <g transform="matrix(1, 0, 0, 1, -3.5, -4)" filter="url(#_Icon_Color)">
            <rect id="_Icon_Color-2" data-name="↳ Icon Color" width="20" height="20" transform="translate(3.5 4)" fill="#1b8f26"/>
          </g>
        </g>
      </g>
    </g>
    <rect id="Rectángulo_3609" data-name="Rectángulo 3609" width="28" height="28" transform="translate(316 357)" fill="none"/>
  </g>
</svg>
