<?xml version="1.0" encoding="UTF-8"?>
<!-- Created with Inkscape (http://www.inkscape.org/) -->
<svg width="120" height="120" version="1.1" viewBox="0 0 120 120" xmlns="http://www.w3.org/2000/svg">
 <path d="m107.05 92.939c3.9059 3.9059 3.9059 10.234 0 14.14-1.9374 1.953-4.4996 2.9216-7.062 2.9216-2.5623 0-5.1184-0.97648-7.0682-2.9295l-32.929-32.911-32.926 32.904c-1.953 1.9686-4.5122 2.9373-7.0713 2.9373-2.5592 0-5.1152-0.96867-7.0698-2.9373-3.906-3.9059-3.906-10.234 0-14.14l32.935-32.935-32.935-32.919c-3.906-3.9059-3.906-10.234 0-14.14 3.9059-3.9059 10.234-3.9059 14.14 0l32.927 32.951 32.935-32.935c3.906-3.9059 10.234-3.9059 14.14 0 3.906 3.9059 3.906 10.234 0 14.14l-32.935 32.935z" stroke-width=".31248"/>
</svg>
